<svg xmlns="http://www.w3.org/2000/svg" viewBox="0 0 256 256">
    <defs>
        <clipPath id="chat-clip">
            <path d="M128.00146,23.99316A104.03063,104.03063,0,0,0,36.814,178.04l-8.55468,29.90625a15.995,15.995,0,0,0,19.78125,19.78125l29.91406-8.53125A104.01366,104.01366,0,1,0,128.00146,23.99316Zm32,128h-64a8,8,0,0,1,0-16h64a8,8,0,0,1,0,16Zm0-32h-64a8,8,0,0,1,0-16h64a8,8,0,0,1,0,16Z"/>
        </clipPath>
    </defs>

    <defs>
        <filter id="light">
            <feSpecularLighting result="spec4" in="blur4" specularExponent="40" lighting-color="#cccccc">
                <!--Light source effect-->
                <fePointLight x="75" y="100" z="120">
                    <!--Lighting Animation-->
                    <animate attributeName="y" values="100;130;100" dur="10s" repeatCount="indefinite" />
                    <animate attributeName="x" values="100;130;100" dur="10s" repeatCount="indefinite" />
                </fePointLight>
            </feSpecularLighting>
        </filter>
    </defs>
    <path d="M128.00146,23.99316A104.03063,104.03063,0,0,0,36.814,178.04l-8.55468,29.90625a15.995,15.995,0,0,0,19.78125,19.78125l29.91406-8.53125A104.01366,104.01366,0,1,0,128.00146,23.99316Zm32,128h-64a8,8,0,0,1,0-16h64a8,8,0,0,1,0,16Zm0-32h-64a8,8,0,0,1,0-16h64a8,8,0,0,1,0,16Z"/>
    <path clip-path="url(#chat-clip)" filter="url(#light)" d="M128.00146,23.99316A104.03063,104.03063,0,0,0,36.814,178.04l-8.55468,29.90625a15.995,15.995,0,0,0,19.78125,19.78125l29.91406-8.53125A104.01366,104.01366,0,1,0,128.00146,23.99316Zm32,128h-64a8,8,0,0,1,0-16h64a8,8,0,0,1,0,16Zm0-32h-64a8,8,0,0,1,0-16h64a8,8,0,0,1,0,16Z"/>
</svg>

