<svg xmlns="http://www.w3.org/2000/svg" viewBox="0 0 256 256">
    <defs>
        <clipPath id="info-clip">
            <path d="M128.00146,24a104,104,0,1,0,104,104A104.12041,104.12041,0,0,0,128.00146,24Zm-.001,48a12,12,0,1,1-12,12A12,12,0,0,1,128.00049,72Zm8.001,112h-8a7.99541,7.99541,0,0,1-8-8V128a8,8,0,0,1,0-16h8a7.99539,7.99539,0,0,1,8,8v48a8,8,0,0,1,0,16Z"/>
        </clipPath>
    </defs>

    <defs>
        <filter id="light">
            <feSpecularLighting result="spec4" in="blur4" specularExponent="40" lighting-color="#cccccc">
                <!--Light source effect-->
                <fePointLight x="75" y="100" z="120">
                    <!--Lighting Animation-->
                    <animate attributeName="y" values="100;130;100" dur="10s" repeatCount="indefinite" />
                    <animate attributeName="x" values="100;130;100" dur="10s" repeatCount="indefinite" />
                </fePointLight>
            </feSpecularLighting>
        </filter>
    </defs>
    <path d="M128.00146,24a104,104,0,1,0,104,104A104.12041,104.12041,0,0,0,128.00146,24Zm-.001,48a12,12,0,1,1-12,12A12,12,0,0,1,128.00049,72Zm8.001,112h-8a7.99541,7.99541,0,0,1-8-8V128a8,8,0,0,1,0-16h8a7.99539,7.99539,0,0,1,8,8v48a8,8,0,0,1,0,16Z"/>
    <path clip-path="url(#info-clip)" filter="url(#light)" d="M128.00146,24a104,104,0,1,0,104,104A104.12041,104.12041,0,0,0,128.00146,24Zm-.001,48a12,12,0,1,1-12,12A12,12,0,0,1,128.00049,72Zm8.001,112h-8a7.99541,7.99541,0,0,1-8-8V128a8,8,0,0,1,0-16h8a7.99539,7.99539,0,0,1,8,8v48a8,8,0,0,1,0,16Z"/>
</svg>


